HIERARCHY
ROOT Hips
{
  OFFSET 0 0 0
  CHANNELS 6 Xposition Yposition Zposition Zrotation Yrotation Xrotation
  JOINT LeftThigh
  {
    OFFSET 8.409438 0 -5.917753
    CHANNELS 3 Zrotation Yrotation Xrotation
    JOINT LeftLeg
    {
      OFFSET 0 0 -42.358652
      CHANNELS 3 Zrotation Yrotation Xrotation
      JOINT LeftFoot
      {
        OFFSET 0 0 -39.357303
        CHANNELS 3 Zrotation Yrotation Xrotation
      }
    }
  }
  JOINT RightThigh
  {
    OFFSET -8.409438 0 -5.917753
    CHANNELS 3 Zrotation Yrotation Xrotation
    JOINT RightLeg
    {
      OFFSET 0 0 -42.358652
      CHANNELS 3 Zrotation Yrotation Xrotation
      JOINT RightFoot
      {
        OFFSET 0 0 -39.357303
        CHANNELS 3 Zrotation Yrotation Xrotation
      }
    }
  }
  JOINT SpineLow
  {
    OFFSET 0 0 4.719101
    CHANNELS 3 Zrotation Yrotation Xrotation
    JOINT SpineMid
    {
      OFFSET 0 0 12.899191
      CHANNELS 3 Zrotation Yrotation Xrotation
      JOINT Chest
      {
        OFFSET 0 0 12.899191
        CHANNELS 3 Zrotation Yrotation Xrotation
        JOINT LeftShoulder
        {
          OFFSET 7.550562 1.41573 9.438202
          CHANNELS 3 Zrotation Yrotation Xrotation
          JOINT LeftArm
          {
            OFFSET 9.155056 0 4.247191
            CHANNELS 3 Zrotation Yrotation Xrotation
            JOINT LeftForearm
            {
              OFFSET 0 0 25.771955
              CHANNELS 3 Zrotation Yrotation Xrotation
              JOINT LeftHand
              {
                OFFSET 0 0 25.197169
                CHANNELS 3 Zrotation Yrotation Xrotation
              }
            }
          }
        }
        JOINT RightShoulder
        {
          OFFSET -7.550562 1.41573 9.438202
          CHANNELS 3 Zrotation Yrotation Xrotation
          JOINT RightArm
          {
            OFFSET -9.155056 0 4.247191
            CHANNELS 3 Zrotation Yrotation Xrotation
            JOINT RightForearm
            {
              OFFSET 0 0 -25.771955
              CHANNELS 3 Zrotation Yrotation Xrotation
              JOINT RightHand
              {
                OFFSET 0 0 -25.197169
                CHANNELS 3 Zrotation Yrotation Xrotation
              }
            }
          }
        }
        JOINT Neck
        {
          OFFSET 0 0 15.101124
          CHANNELS 3 Zrotation Yrotation Xrotation
          JOINT Head
          {
            OFFSET 0 0 11.325843
            CHANNELS 3 Zrotation Yrotation Xrotation
            End Site
            {
              OFFSET 0 0 14.157303
            }
          }
        }
      }
    }
  }
}
MOTION
Frames: 11
Frame Time: 0.0
0.0  93.25843  0.0  -12.080268  1.542257  -130.151738  -7.957889  -7.371916  20.342071  -5.807553  -1.71477  17.809624  2.416394  1.590556  4.87541  23.028196  -33.428319  -111.776067  23.887833  35.531956  110.739123  15.99116  17.020357  4.91619  -2.737462  -2.901358  2.896425  -7.850648  -7.576678  8.268454  -7.850647  -7.576678  8.268454  -0.163281  30.754445  20.846176  -177.433852  37.327202  -145.336548  -9.250947  2.066409  66.736707  79.110414  -18.579649  15.288594  -2.998621  -1.411221  24.881691  57.572973  40.32766  32.064346  -22.744262  -3.922591  -85.156295  83.535403  0.781254  -64.144604  -22.639891  17.721859  12.992913  -17.237438  12.84179  10.35762  
0.0  93.25843  0.0  -11.889696  1.945316  -130.180736  -8.27495  -6.97883  19.972854  -5.873377  -1.465001  18.188143  2.424724  1.660696  4.93859  23.27649  -33.474504  -111.517565  24.404445  33.847815  111.377446  13.423881  16.26187  4.699755  -2.919086  -2.792339  2.939141  -8.336767  -7.250923  8.389558  -8.336767  -7.250923  8.389558  1.550333  30.912152  21.526948  -178.391048  36.725978  -146.790026  -8.87184  3.87065  61.384599  80.41609  -18.409378  16.174881  -2.020731  -1.150046  26.241536  56.604697  36.455745  31.364253  -25.517822  -4.669982  -82.333053  96.041658  -0.580245  -66.435919  -22.073599  17.49482  12.685019  -16.804812  12.692754  10.103562  
0.0  93.25843  0.0  -11.645509  2.350982  -130.371023  -8.345793  -6.691628  19.720498  -5.937314  -1.22674  18.526045  2.441115  1.635107  5.044439  23.084884  -33.649523  -110.228956  23.641391  33.480285  110.982299  12.581644  16.574467  5.003531  -3.230403  -2.702818  3.077835  -9.189736  -6.946834  8.787551  -9.189736  -6.946834  8.787551  3.538243  31.510506  21.833943  -177.97696  36.539287  -146.542898  -7.179919  5.101019  55.780957  82.912186  -18.880888  16.729675  -0.269343  -0.785653  27.254733  55.257107  33.639974  29.967309  -28.271438  -5.933918  -78.988965  107.169472  -1.028636  -68.472516  -21.038228  17.507765  12.11778  -16.016843  12.740939  9.649338  
0.0  93.25843  0.0  -11.530085  2.641078  -130.286555  -8.298952  -6.715803  19.189068  -6.085642  -0.944735  18.766558  2.333688  1.557044  5.03729  22.713057  -34.114256  -108.4865  23.03955  33.485112  110.539991  12.843846  16.612637  5.237783  -3.554614  -2.643336  3.286148  -10.087651  -6.708183  9.379168  -10.087651  -6.708184  9.379168  4.985664  32.052664  21.451968  -178.129146  36.005887  -146.616626  -3.637713  3.905448  51.467635  85.039601  -19.523629  16.188257  1.642152  -0.326432  27.687912  52.207567  32.297723  27.914037  -28.286159  -8.718637  -74.574991  115.344464  1.22975  -65.998276  -20.061416  17.325853  11.239027  -15.261842  12.649698  8.959587  
0.0  93.25843  0.0  -11.374918  2.789339  -129.992037  -8.118261  -6.804797  18.479541  -6.206423  -0.729452  18.881428  2.287113  1.457086  5.05629  22.161768  -34.480583  -106.379114  22.439785  33.38505  110.308103  12.767194  16.593224  5.350952  -3.794247  -2.572775  3.461844  -10.747429  -6.452278  9.869165  -10.747429  -6.452279  9.869165  5.61327  32.535009  20.7872  -179.967312  35.80145  -147.983698  -0.573325  1.799207  47.731848  86.469161  -20.25696  14.847317  2.988186  -0.131721  27.953121  47.958754  32.343574  26.176007  -25.322524  -10.117593  -72.755251  118.750246  0.901949  -62.697751  -19.279088  17.017351  10.480272  -14.65497  12.454067  8.362263  
0.0  93.25843  0.0  -10.930363  2.72755  -129.59302  -7.73329  -6.758615  17.695971  -6.175066  -0.556187  18.906352  2.267147  1.350669  5.075738  21.606935  -34.782632  -103.734371  21.780245  33.159306  109.955988  11.955677  16.6589  5.276782  -3.803606  -2.4333  3.576626  -10.758944  -6.052805  10.158062  -10.758945  -6.052805  10.158062  4.83085  32.618417  20.005036  178.016974  35.587869  -149.754207  0.512022  -0.43832  44.577538  86.452273  -20.467112  14.388316  2.841075  -0.558189  27.839388  44.588421  33.13573  25.570294  -22.515273  -9.963256  -72.818549  117.751618  -0.121119  -60.009482  -19.035672  16.403725  10.032967  -14.457423  12.010252  8.005167  
0.0  93.25843  0.0  -10.2976  2.333887  -128.623859  -6.493106  -7.193433  16.660953  -6.565203  -0.25506  18.574953  2.181269  1.298221  5.078518  21.552354  -35.066511  -101.176376  21.08535  32.815401  109.435195  10.968737  16.686585  5.098164  -3.573493  -2.307429  3.589371  -10.109529  -5.744846  10.151626  -10.109528  -5.744846  10.151626  2.997371  32.404311  19.267709  176.163084  35.126243  -151.310653  -3.665051  -1.678652  42.069644  85.930705  -20.169233  16.381529  1.488876  -1.231537  27.21093  42.59006  33.772241  25.974069  -19.685024  -9.68759  -73.019975  115.575523  -0.857842  -57.098952  -19.355019  15.568145  9.678772  -14.681319  11.388529  7.726912  
0.0  93.25843  0.0  -9.553294  1.701394  -127.40724  -5.976998  -6.871447  15.00007  -6.019479  -0.368457  18.673409  2.23544  1.220322  5.102631  21.631312  -35.335156  -98.403598  20.361266  32.344822  108.851938  10.212348  16.540386  4.923134  -3.314841  -2.185382  3.521225  -9.376994  -5.463354  9.924979  -9.376994  -5.463354  9.924979  1.555377  31.979509  18.72267  174.667274  34.815241  -152.725804  -6.055593  -3.091566  40.392919  87.400085  -20.593739  15.661684  0.589818  -1.984682  27.053612  42.156363  34.419132  26.658923  -18.808446  -8.208708  -72.694528  112.916505  0.001233  -54.948242  -19.575383  14.818511  9.408768  -14.83484  10.830511  7.510039  
0.0  93.25843  0.0  -8.886118  0.994789  -126.376531  -4.839692  -6.668739  13.676544  -6.120318  -0.609635  18.469367  2.36784  1.08082  5.146336  21.326646  -35.641196  -94.939647  19.448794  31.747796  108.10609  9.37088  16.278172  4.722361  -3.140023  -2.058019  3.50398  -8.877234  -5.145988  9.845154  -8.877234  -5.145988  9.845154  0.833291  31.380362  18.317852  174.145982  35.37274  -153.266975  -5.722861  -3.257309  39.479092  87.884291  -20.879088  13.222168  0.320568  -2.488583  27.071483  43.136578  34.298664  26.658992  -19.80091  -5.464729  -71.899221  110.905885  1.035202  -53.429168  -19.353437  14.122953  9.10331  -14.658179  10.320462  7.256533  
0.0  93.25843  0.0  -8.203344  0.103723  -125.370326  -3.68208  -7.055399  12.374589  -6.143372  -0.343933  18.161603  2.4985  0.93264  5.188023  20.822385  -35.952809  -90.893202  18.350117  30.981219  107.075982  8.169194  16.019196  4.410073  -3.024563  -1.921943  3.507947  -8.540111  -4.792716  9.827937  -8.540111  -4.792716  9.827937  0.855222  30.492836  17.988776  173.816727  35.864818  -153.201336  -5.839099  -3.309284  39.037333  87.129386  -20.703588  11.650654  0.495412  -2.82295  26.980835  45.507267  33.480953  26.712169  -22.088862  -2.631738  -70.732607  109.515588  2.203079  -51.919135  -18.924286  13.498433  8.700907  -14.325163  9.869306  6.928005  
0.0  93.25843  0.0  -7.519178  -0.916638  -124.279205  -3.436727  -7.181785  10.995092  -5.091854  -0.219437  17.965608  2.956011  0.756743  5.363832  20.137379  -36.237584  -86.519928  17.258029  30.038096  105.883765  6.605313  15.81166  4.008959  -2.912759  -1.820649  3.483453  -8.217014  -4.537046  9.739433  -8.217014  -4.537047  9.739434  1.640716  29.697756  18.010073  172.818285  36.148793  -153.120768  -7.076388  -3.737329  38.848446  87.865528  -20.990022  11.223871  1.144498  -2.829688  27.209138  47.502125  32.842822  26.517859  -24.972032  -1.09224  -69.911411  108.992544  3.076849  -50.460099  -18.393805  13.110786  8.3813  -13.919823  9.594449  6.666237  
